<svg width="32" height="32" viewBox="0 0 32 32" fill="none" xmlns="http://www.w3.org/2000/svg">
<path fill-rule="evenodd" clip-rule="evenodd" d="M16.3333 5.05128C22.5642 5.05128 27.6154 10.1024 27.6154 16.3333C27.6154 18.2 27.1628 19.958 26.3624 21.5064C26.2871 21.652 26.2479 21.8135 26.2479 21.9774V26.2479H21.9774C21.8135 26.2479 21.652 26.2871 21.5064 26.3624C19.9579 27.1629 18.2 27.6154 16.3333 27.6154C10.1024 27.6154 5.05127 22.5642 5.05127 16.3333C5.05127 10.1024 10.1024 5.05128 16.3333 5.05128ZM29.6667 16.3333C29.6667 8.96954 23.6971 3 16.3333 3C8.96953 3 2.99999 8.96954 2.99999 16.3333C2.99999 23.6971 8.96953 29.6667 16.3333 29.6667C18.445 29.6667 20.4447 29.175 22.2215 28.2991H27.2735C27.8399 28.2991 28.2991 27.84 28.2991 27.2735V22.2215C29.175 20.4447 29.6667 18.445 29.6667 16.3333Z" fill="#676767"/>
<path d="M19.0684 16.3333C19.0684 17.0886 19.6806 17.7009 20.4359 17.7009C21.1911 17.7009 21.8034 17.0886 21.8034 16.3333C21.8034 15.5781 21.1911 14.9658 20.4359 14.9658C19.6806 14.9658 19.0684 15.5781 19.0684 16.3333Z" fill="#676767"/>
<path d="M14.9658 16.3333C14.9658 17.0886 15.5781 17.7009 16.3333 17.7009C17.0886 17.7009 17.7008 17.0886 17.7008 16.3333C17.7008 15.5781 17.0886 14.9658 16.3333 14.9658C15.5781 14.9658 14.9658 15.5781 14.9658 16.3333Z" fill="#676767"/>
<path d="M10.8632 16.3333C10.8632 17.0886 11.4755 17.7009 12.2308 17.7009C12.986 17.7009 13.5983 17.0886 13.5983 16.3333C13.5983 15.5781 12.986 14.9658 12.2308 14.9658C11.4755 14.9658 10.8632 15.5781 10.8632 16.3333Z" fill="#676767"/>
</svg>
