<svg width="32" height="32" viewBox="0 0 32 32" fill="none" xmlns="http://www.w3.org/2000/svg">
<path d="M29.3333 12.1C29.3333 14.2931 28.3809 16.2121 26.8843 17.7199L16.6803 27.7259C16.4082 27.8629 16.2721 28 16 28C15.7279 28 15.4558 27.8629 15.3197 27.7259L5.11564 17.5828C3.61904 16.075 2.66666 14.019 2.66666 11.8259C2.66666 9.76987 3.61904 7.85091 5.11564 6.34315C6.74829 4.8354 8.78911 3.87592 10.966 4.01299C12.7347 4.01299 14.3673 4.69833 15.7279 5.79488C18.9932 3.19058 23.619 3.46471 26.6122 6.48022C28.3809 7.85091 29.3333 9.90694 29.3333 12.1Z" fill="#FFB331"/>
</svg>
