<svg width="32" height="32" viewBox="0 0 32 32" fill="none" xmlns="http://www.w3.org/2000/svg">
<path fill-rule="evenodd" clip-rule="evenodd" d="M2.7913 5.73614C2.15944 3.84768 4.04237 2.06996 5.90724 2.85834C8.7728 4.06978 13.3576 6.05095 16.663 7.68932C20.4183 9.55072 25.4602 12.426 28.1751 13.9998C29.7194 14.8951 29.7194 17.1048 28.1751 18.0001C25.4602 19.5739 20.4183 22.4492 16.663 24.3106C13.3576 25.949 8.7728 27.9301 5.90723 29.1416C4.04237 29.93 2.15944 28.1522 2.7913 26.2638L6.22546 16L2.7913 5.73614ZM8.0087 17.0009L4.69763 26.8968C4.60422 27.176 4.87586 27.4029 5.12228 27.2987C7.98681 26.0877 12.522 24.1271 15.7679 22.5183C19.4578 20.6893 24.4484 17.8443 27.1645 16.2698C27.377 16.1466 27.377 15.8533 27.1645 15.7301C24.4484 14.1556 19.4578 11.3106 15.7679 9.48165C12.522 7.87279 7.98681 5.9122 5.12228 4.70119C4.87586 4.59702 4.60422 4.8239 4.69763 5.10308L8.0087 14.999H13.5362C14.091 14.999 14.5409 15.4471 14.5409 16C14.5409 16.5528 14.091 17.0009 13.5362 17.0009H8.0087Z" fill="#676767"/>
</svg>
