<svg width="32" height="32" viewBox="0 0 32 32" fill="none" xmlns="http://www.w3.org/2000/svg">
<rect width="32" height="32" fill="white"/>
<path fill-rule="evenodd" clip-rule="evenodd" d="M9.1422 3.07258C11.0563 2.89191 13.8642 2.66663 16 2.66663C18.1358 2.66663 20.9437 2.89191 22.8578 3.07258C24.6635 3.24303 26.0653 4.68016 26.1997 6.469C26.3898 8.99886 26.6667 13.2104 26.6667 16.3155C26.6667 18.6959 26.5041 21.7219 26.3433 24.1379C26.2626 25.3491 26.182 26.4129 26.1215 27.1741C26.0913 27.5547 26.0661 27.8599 26.0484 28.0701L26.0278 28.3119L26.0206 28.3954L26.0205 28.3968C26.0205 28.3969 26.0205 28.3969 24.9921 28.3077L26.0205 28.3968C25.9902 28.7404 25.7883 29.046 25.4829 29.21C25.1775 29.3739 24.8097 29.3744 24.5038 29.2113L16.1628 24.7617C16.0611 24.7075 15.9389 24.7075 15.8372 24.7617L7.49617 29.2113C7.19036 29.3744 6.82249 29.3739 6.51712 29.21C6.21175 29.046 6.00977 28.7405 5.97955 28.3969L7.00789 28.3077C5.97955 28.3969 5.97956 28.397 5.97955 28.3969L5.97217 28.3119L5.95162 28.0701C5.93394 27.8599 5.90872 27.5547 5.87847 27.1741C5.818 26.4129 5.73737 25.3491 5.65673 24.1379C5.49588 21.7219 5.33334 18.6959 5.33334 16.3155C5.33334 13.2104 5.61018 8.99887 5.80028 6.469C5.93469 4.68016 7.33649 3.24303 9.1422 3.07258ZM7.90906 26.6628L14.8607 22.9545C15.5722 22.5749 16.4278 22.5749 17.1393 22.9545L24.0909 26.6628C24.1468 25.9464 24.215 25.0276 24.2833 24.0025C24.4436 21.5949 24.6022 18.6248 24.6022 16.3155C24.6022 13.2946 24.331 9.15097 24.1409 6.62172C24.0808 5.82129 23.4583 5.18979 22.6626 5.11467C20.7535 4.93447 18.0299 4.71791 16 4.71791C13.9701 4.71791 11.2465 4.93447 9.33746 5.11467C8.54166 5.18979 7.91921 5.82129 7.85906 6.62172C7.66901 9.15097 7.39785 13.2946 7.39785 16.3155C7.39785 18.6248 7.55645 21.5949 7.71675 24.0025C7.78499 25.0276 7.85325 25.9464 7.90906 26.6628Z" fill="#FFB231"/>
</svg>
